/* XPM */
static char * mm_demon_xpm[] = {
"20 20 147 2",
"  	c None",
". 	c #FF00FF",
"+ 	c #731673",
"@ 	c #F000F0",
"# 	c #9C0C9C",
"$ 	c #480F47",
"% 	c #BC32BB",
"& 	c #E000E0",
"* 	c #AD16A0",
"= 	c #8B0D86",
"- 	c #BC10B6",
"; 	c #FE1DF1",
"> 	c #A920A8",
", 	c #5C285A",
"' 	c #733F6F",
") 	c #9E8894",
"! 	c #FE5DFB",
"~ 	c #991190",
"{ 	c #712037",
"] 	c #D94A2C",
"^ 	c #F75535",
"/ 	c #F75534",
"( 	c #F75434",
"_ 	c #BF357C",
": 	c #C507C3",
"< 	c #B598AA",
"[ 	c #711871",
"} 	c #CDC3BA",
"| 	c #D9C1CA",
"1 	c #5F215C",
"2 	c #672013",
"3 	c #661C41",
"4 	c #6A4165",
"5 	c #AEA7A1",
"6 	c #D8CFC7",
"7 	c #B112B1",
"8 	c #885384",
"9 	c #CCC3BB",
"0 	c #F7EDE3",
"a 	c #5B433C",
"b 	c #D84B2D",
"c 	c #3A332F",
"d 	c #F0E6DD",
"e 	c #793C76",
"f 	c #E353E0",
"g 	c #723F6F",
"h 	c #C9C1B9",
"i 	c #3C2C27",
"j 	c #F65534",
"k 	c #584640",
"l 	c #D2C9C1",
"m 	c #60265E",
"n 	c #5F0A59",
"o 	c #74463B",
"p 	c #B94027",
"q 	c #D84A2C",
"r 	c #3E150D",
"s 	c #D84A2D",
"t 	c #5C2014",
"u 	c #B84027",
"v 	c #B64C35",
"w 	c #793A2D",
"x 	c #821179",
"y 	c #7E1B64",
"z 	c #671D36",
"A 	c #4B1D13",
"B 	c #D94B2D",
"C 	c #6F2719",
"D 	c #7B2349",
"E 	c #551A0F",
"F 	c #0D0705",
"G 	c #261715",
"H 	c #391911",
"I 	c #7B2A1A",
"J 	c #9A3520",
"K 	c #27100D",
"L 	c #271715",
"M 	c #200F0B",
"N 	c #9A3420",
"O 	c #BC0DB8",
"P 	c #9E321C",
"Q 	c #6E2718",
"R 	c #26100C",
"S 	c #B94127",
"T 	c #C3452C",
"U 	c #572217",
"V 	c #8B311F",
"W 	c #B93B21",
"X 	c #CF00CF",
"Y 	c #862835",
"Z 	c #591E12",
"` 	c #3B140C",
" .	c #D94566",
"..	c #5E1645",
"+.	c #F05131",
"@.	c #38130B",
"#.	c #541C10",
"$.	c #F65535",
"%.	c #AE1F98",
"&.	c #54281F",
"*.	c #BF3E24",
"=.	c #842A18",
"-.	c #692213",
";.	c #C54126",
">.	c #5D2E24",
",.	c #B105B0",
"'.	c #1C1817",
").	c #7B473B",
"!.	c #E94E2E",
"~.	c #E84E2E",
"{.	c #76544B",
"].	c #26151F",
"^.	c #940593",
"/.	c #52342E",
"(.	c #785951",
"_.	c #9A3421",
":.	c #B94026",
"<.	c #99341F",
"[.	c #705E58",
"}.	c #44232E",
"|.	c #BB0DB6",
"1.	c #5E0959",
"2.	c #6A2010",
"3.	c #3A1109",
"4.	c #8F2B16",
"5.	c #AC341B",
"6.	c #8F2B17",
"7.	c #AC351B",
"8.	c #571A0E",
"9.	c #3A1108",
"0.	c #71076F",
"a.	c #5D1540",
"b.	c #772717",
"c.	c #792818",
"d.	c #3D140C",
"e.	c #5B1E11",
"f.	c #5C1F12",
"g.	c #7A2919",
"h.	c #600D58",
"i.	c #691458",
"j.	c #CB4428",
"k.	c #680C64",
"l.	c #7D0E75",
"m.	c #67174D",
"n.	c #79156A",
"o.	c #690C64",
"p.	c #9F1298",
". . + @ . . . . . . . . . . . . @ # . . ",
". . $ % . . . & * = = - ; . . . > , . . ",
". . ' ) ! . ~ { ] ^ / ( _ : . > < [ . . ",
". . > } | 1 2 / ( / / ^ ^ 3 4 5 6 7 . . ",
". . . 8 9 0 a b / / / ( b c d 0 e . . . ",
". . . f g h i / j j / ^ ( k l m & . . . ",
". . . . n o p q r s s t u v w x . . . . ",
". . . . y z A p s p p / B C D = @ . . . ",
". . . . @ E F G H I J K L M N & . . . . ",
". . . . O P Q M R S T U R V S : . . . . ",
". . . . O W / ( s B ( s ( / q : . . . . ",
". . . . X Y ^ ^ Z / q ` / ^  .@ . . . . ",
". . . . . ..+.s @./ s #.$./ %.. . . . . ",
". . . . . ~ &.J *.=.-.;.I >.,.. . . . . ",
". . . . . & '.)./ !.~./ {.].@ . . . . . ",
". . . . . ^./.(._.:.J <.[.}.|.. . . . . ",
". . . . . 1.2.3.4.5.6.7.8.9.0.. . . . . ",
". . . . . . a.b.c.d.e.f.g.h.. . . . . . ",
". . . . . . i.j./ / / / / k.. . . . . . ",
". . . . . . & l.x m.n.o.p.& . . . . . . "};
