/* XPM */
static char * mm_door_xpm[] = {
"20 20 36 1",
" 	c None",
".	c #827A7A",
"+	c #837B7B",
"@	c #271409",
"#	c #391F0F",
"$	c #381F10",
"%	c #281408",
"&	c #766F6F",
"*	c #29180E",
"=	c #5D371E",
"-	c #3E2413",
";	c #3B2111",
">	c #613A20",
",	c #28160B",
"'	c #726B6B",
")	c #512F17",
"!	c #563116",
"~	c #A26234",
"{	c #623C23",
"]	c #59351D",
"^	c #945A30",
"/	c #6E5E56",
"(	c #824E2A",
"_	c #7F4B26",
":	c #919291",
"<	c #60381D",
"[	c #8C562E",
"}	c #9E5F33",
"|	c #7C7575",
"1	c #5E5858",
"2	c #524D4D",
"3	c #3B200E",
"4	c #4C362B",
"5	c #946F5F",
"6	c #655049",
"7	c #66554F",
".+@##$$$$$$$$$$$#%&.",
".+*=-##########;>,&.",
"..')!~~~~~~~~~~{]'..",
"..')!~~~~~~~~~~{]'..",
"..')!~~~~~~~~~~{]'..",
"..')!~~~~~~~~~~{]'..",
"..')!~~~~~~~~~~{]'..",
"..')!~~~~~~~~~~{]'..",
"..')!~~~~~~~~~~{]'..",
"..')!~~~~~~~^/({]'..",
"..')!~~~~~~~_:<{]'..",
"..')!~~~~~~~~[}{]'..",
"..')!~~~~~~~~~~{]'..",
"..')!~~~~~~~~~~{]'..",
"..')!~~~~~~~~~~{]'..",
"..')!~~~~~~~~~~{]'..",
"..')!~~~~~~~~~~{]'..",
"..')!~~~~~~~~~~{]'..",
"..')!~~~~~~~~~~{]'..",
"|123455555555556721'"};
