/* XPM */
static char * s_wall_xpm[] = {
"64 64 4 1",
" 	c None",
".	c #0B1A08",
"+	c #D28D42",
"@	c #DCB66C",
"..++@@@@@@@@@@@@@@@@@@@@@@++..++++++@@@@@@@@++..++++@@@@@@@@++..",
"...++@@@@@@@@@@@@@@@@@@@@@++..+++++@@@@@@@@@++..+++@@@@@@@@@++..",
"+...+@@@@@@@@@@@@@@@@@@@@++..++@@@@@@@@@@@@@++..+++@@@@@@@@@++..",
"++...++@@@@@@@@@@@@@@@@@++..++@@@@@@@@@@@@@@++..++@@@@@@@@@@++..",
"@++...+@@@@@@@@@@@@@@@@@@++.+++@@@@@@@@@@@@@++..++@@@@@@@@@@++..",
"@@@+...++@@@@@@@@@@@@@@@@@++..++@@@@@@@@@@@++...+@@@@@@@@@@++...",
"@@@++...+@@@@@@@@@+++++++++...++@@@@@@@@@@@+...++@@@@@@@@@@+...+",
"@@@@@+...++@@@@@++++++++++...+@@@@@@@@@@@@+...++@@@@@@@@@++...++",
"@@@@@++...+@@@@++..........++@@@@@@@@@@@@+...+@@@@@@@@@@@+...++@",
"@@@@@@@+...+@@@+..........++@@@@@@@@@@@@++..++@@@@@@@@@@++..+@@@",
"@@@@@@@++...+++...++++++...++@@@@@@@@@@@++...+@@@@@@@@@@++..@@@@",
"@@@@@@@@@+..++...+++++++++..++@@@@@@@@@++.+...++@@@@@@@++...@@@@",
"@@@@@@@@@++....++@@@@@++++..++@@@@@@@@@+.......++@@@@@@+...+@@@@",
"@@@@@@@@@@@+..++@@@@@@@@++...++@@@@@@@+....++...++@@@@++..++@@@@",
"@@@@@@@@@@@@+...+@@@@@@@@++...+@@@@@@+...++@@++...+@@@+...+@@@@@",
"@@@@@@@@@@@@++..++@@@@@@@@@+...++@@++...+@@@@@@+..+@@++..++@@@@@",
"@@@@@@@@@@@@@+..++@@@@@@@@@++...++++...++@@@@@@++..+++...+@@@@@@",
"@@@@@@@@@@@@@+...++@@@@@@@@@++..+++...+@@@@@@@@@++..++..++@@@@@@",
"@@@@@@@@@@@@@@++..+@@@@@@@@@++..++...++@@@@@@@@@++..++..++@@@@@@",
"@@@@@@@@@@@@@@++..++@@@@@@@@@+..++..++@@@@@@@@@++...+...++@@@@@@",
"@@@@@@@@@@@@@@....++@@@@@@@@@@++....++@@@@@@@@@++.......++@@@@@@",
"@@@@@@@@@@@@++...+.++@@@@@@@@@++.....++@@@@@@+++........++@@@@@@",
"@@@@@@@@@@@++..++...++++++++++..++....+@@@@@@+++...+....+++@@@@@",
"@@@@@@@@@@@+..++++...++++++++...+++....++@@++++...+++...++++@@@@",
"@@@@@@@@@@++..++@@+............+@@+++...++++.....++@++.....++@@@",
"@@@@@@@@@@++..+@@@@+..........+@@@@+++...++.....+@@@@@+.....++@@",
"@@@@@@@@+++...+@@@@++++++...++@@@@@+++.......++++@@@@@@+++...+++",
"@@@@@@++++...+@@@@@@@+++++..++@@@@@@++......+++@@@@@@@@@+++...++",
"+++++++....++@@@@@@@@@@@@@+...+@@@@@++..+++++@@@@@@@@@@@@++...++",
"++++++.....++@@@@@@@@@@@@@++..++@@@@@+..++++@@@@@@@@@@@@@++...++",
"........+...+@@@@@@@@@@@@+++..++@@@@@++...++@@@@@@@@@@@@@+..+...",
".......+++...++@@@@@@@@++++...+@@@@@@@++..++@@@@@@@@@@@++..+++..",
"+++++++@@@++..++++++++++.....++@@@@@@@++..++@@@@@@@@@@+...+@@@++",
"+++++@@@@@@++...+++++++.....+@@@@@@@@@++...++@@@@@@@@+...++@@@@+",
"@@@@@@@@@@@@+.+.........+++++@@@@@@@@@++++..+@@@@@@@+...++@@@@@@",
"@@@@@@@@@@@@++..........++++@@@@@@@@@+++++..+++@@@++...++@@@@@@@",
"@@@@@@@@@@@@++...++++++...++@@@@@@@@@+.....++++++++...++@@@@@@@@",
"@@@@@@@@@@@++...++++++++..++@@@@@@@++.....++.+++++....++@@@@@@@@",
"@@@@@@@@@+++...++@@@@+++..++@@@@@@@+...++++...........++@@@@@@@@",
"@@@@@@@@+++...+@@@@@@@++..++@@@@@++...++++++..........++@@@@@@@@",
"@@@@@@@+...+..+@@@@@@@++..++@@@@@+...++@@@@++....++...++@@@@@@@@",
"@@@@@@+......+@@@@@@@@@+...++@@@++..++@@@@@@++..+++...++@@@@@@@@",
"@@@@@+...+...+@@@@@@@@@++...+@@@++..++@@@@@@++..++++..+++@@@@@@@",
"@@@@+...+++...+@@@@@@@@@@+...+@@++..++@@@@@@++..++++...+++@@@@@@",
"@@@++..++@@+..+@@@@@@@@@@++...++++..++@@@@@@++..+++++.....+@@@@@",
"@@@+...+@@@++..++@@@@@@@@@@+...+++..++@@@@@++...+++++......+@@@@",
"@@++..++@@@@++..+@@@@@@@@@@++...++..++@@@@@+...+@@++..+++..++@@@",
"@++...++@@@@++..++@@@@@@@@@@@+..++..+++@@+++..++@@++..+++...+++@",
"++...++@@@@@++..++@@@@@@@@@@@@+.....++++++++..++@@++..++++..++++",
"+...++@@@@@@++..++@@@@@@@@@@@@++.....++++++...+@@@++..++++...+++",
"...++@@@@@@@++..++@@@+++++++++++++..........++@@@++...+@@@+.....",
"..+@@@@@@@@@++..++++++++++++++++++++.......++@@@++...+@@@@@+....",
"+++@@@@@@@@@++..++++..............++++++++++@@@@++..++@@@@@+++++",
"+@@@@@@@@@@@++..+++................+++++++@@@@@@++..++@@@@@@@+++",
"@@@@@@@@@@@@++..++...++++++++++++...++@@@@@@@@@@@@+...+@@@@@@@@@",
"@@@@@@@@@@@+++......++++++++++++++..++@@@@@@@@@@@@@+...++@@@@@@@",
"@@@@@@@++++++++....+@@@@@@@@@@@@++..++@@@@@@@@@@@@@++...+@@@@@@@",
"@@@@@++++++++.++.++@@@@@@@@@@@@@@+...+++@@@@@@@@@@@@++...++@@@@@",
"@@@@@+.........+++@@@@@@@@@@@@@@@@+...++++++@@@@@@@+++++..+@@@@@",
"@@@++.........++@@@@@@@@@@@@@@@@@+++....++++++@@@@+++++....++@@@",
"@@@+...+++++++@@@@@@@@@@@@@@@@+++++.+........++++++.........+@@@",
"@++...+++++++@@@@@@@@@@@@@@@@+++++..++........++++...........++@",
"++...++@@@@@@@@@@@@@@@@@@@@@@++....+.++++++.+......++++++++...++",
"++..++@@@@@@@@@@@@@@@@@@@@@@++......++++++++........++++++++..++"};
